<svg xmlns="http://www.w3.org/2000/svg" viewBox="0 0 64 64" role="img" aria-label="JK">
  <defs>
    <linearGradient id="g" x1="0" x2="1" y1="0" y2="1">
      <stop offset="0%" stop-color="#7dd3fc"/>
      <stop offset="100%" stop-color="#c084fc"/>
    </linearGradient>
  </defs>
  <rect width="64" height="64" rx="18" fill="#081122"/>
  <rect x="4" y="4" width="56" height="56" rx="16" fill="url(#g)" opacity="0.14"/>
  <path d="M18 16h8v18c0 5.2-1.2 9.2-4 12.2-2 2.1-4.8 3.5-8 4l-1.3-6.7c1.8-.4 3.2-1.1 4.1-2.1 1.4-1.5 1.2-4.2 1.2-7.2V16zm18 0h8v11.8L54 16h10L50.2 30.8 64 48H53.8L44 35.1V48h-8V16z" fill="#eef6ff"/>
</svg>
