<svg xmlns="http://www.w3.org/2000/svg" viewBox="0 0 64 64" fill="none">
  <circle cx="32" cy="32" r="31" fill="#ffffff" stroke="#d9e5f4" stroke-width="2"/>
  <path fill="#243447" d="M32 13.5c-10.2 0-18.5 8.3-18.5 18.6 0 8.2 5.3 15.1 12.7 17.6.9.2 1.2-.4 1.2-.9v-3.5c-5.2 1.1-6.3-2.2-6.3-2.2-.8-2.2-2.1-2.8-2.1-2.8-1.8-1.2.1-1.2.1-1.2 2 .1 3 2.1 3 2.1 1.8 3.1 4.6 2.2 5.8 1.7.2-1.3.7-2.2 1.3-2.7-4.2-.5-8.6-2.1-8.6-9.4 0-2.1.7-3.8 2-5.2-.2-.5-.9-2.4.2-5 0 0 1.6-.5 5.3 2 1.5-.4 3.2-.6 4.8-.6s3.3.2 4.8.6c3.6-2.5 5.3-2 5.3-2 1.1 2.6.4 4.5.2 5 .8 1.4 2 3.1 2 5.2 0 7.3-4.5 8.9-8.7 9.4.7.6 1.3 1.8 1.3 3.6v5.4c0 .5.3 1.1 1.2.9 7.4-2.5 12.7-9.4 12.7-17.6C50.5 21.8 42.2 13.5 32 13.5Z"/>
</svg>